<svg width="597" height="534" viewBox="0 0 597 534" fill="none" xmlns="http://www.w3.org/2000/svg">
<path fill-rule="evenodd" clip-rule="evenodd" d="M298.713 100.132C439.276 121.253 537.3 193.015 537.3 307.591C537.3 444.924 415.523 302.232 331.553 382.301C247.583 462.37 68.6833 464.64 60.1256 307.591C52.1145 160.574 158.149 79.0111 298.713 100.132Z" fill="#285964" fill-opacity="0.8"/>
<path fill-rule="evenodd" clip-rule="evenodd" d="M226.861 322.147L264.044 279.124L264.898 279.729C270.389 283.591 274.744 286.136 277.962 287.364L278.915 287.725C294.374 293.542 305.004 295.518 303.296 296.884L301.181 298.584C287.517 309.617 268.808 325.661 245.055 346.716C241.802 349.851 237.419 351.863 232.683 352.4L227.785 352.923C179.704 358.014 148.857 358.453 137.553 356.214C135.192 355.747 127.926 356.967 122.44 361.897C114.211 369.29 102.443 387.1 100.467 387.1C97.5943 387.1 100.301 375.304 108.589 351.711L109.465 348.97C113.326 336.996 116.103 329.917 117.797 327.732C119.617 325.384 125.764 329.528 136.237 340.163L135.953 341.546C137.312 340.135 138.924 338.635 140.787 337.044L145.736 336.514C163.218 334.616 176.506 332.879 185.601 331.306L186.558 331.138C196.412 329.391 209.846 326.394 226.861 322.147Z" fill="white"/>
<path fill-rule="evenodd" clip-rule="evenodd" d="M458.408 277.576L472.233 286.895C474.886 288.68 476.832 291.184 477.78 294.032L480.399 301.878C481.631 304.252 480.554 307.071 477.955 308.272L473.072 311.513C469.932 312.962 466.104 311.392 465.279 308.316L462.531 299.572C462.531 299.572 450.88 296.406 449.33 284.003L458.408 277.576" fill="white"/>
<path fill-rule="evenodd" clip-rule="evenodd" d="M391.771 124.524C401.218 124.867 405.965 136.447 409.054 142.171C410.106 144.121 402.707 201.751 400.288 216.498C395.983 242.76 382.97 251.087 374.8 252.875C374.8 252.875 375.29 282.733 371.868 290.165C364.292 306.62 268.387 295.575 259.014 268.073C252.607 249.271 276.418 247.08 285.355 235.744C301.733 214.969 302.583 195.634 320.226 181.802C326.912 175.248 334.675 168.67 341.37 160.759L344.094 157.553C361.123 137.597 374.091 124.357 390.884 124.504L391.771 124.524Z" fill="white"/>
<path d="M268.63 267.106C274.121 265.47 284.293 265.648 289.615 268.702C291.651 269.871 294.329 271.442 296.233 270.603L296.371 270.547C297.68 270.066 300.741 270.074 301.691 270.13L301.866 270.143C305.062 270.46 305.757 270.719 306.516 271.214L307.06 271.583L307.371 271.69C308.526 272.092 309.751 272.568 311.047 273.117C311.582 273.074 312.198 272.949 312.926 272.716L313.234 272.62C318.726 270.985 326.163 271.943 331.485 274.997C333.521 276.165 336.199 277.737 338.103 276.898C341.407 275.44 347.363 276.733 355.969 280.778L356.796 281.171C354.364 281.572 343.199 276.487 337.899 278.824C336.219 279.565 333.937 278.429 332.024 277.349L330.953 276.74C325.903 273.968 319.08 273.032 313.793 274.34C310.944 275.4 306.218 272.593 301.662 272.07C297.106 271.548 296.976 272.701 293.557 272.018C292.233 271.753 290.118 270.925 287.211 269.534C282.057 267.321 272.924 267.59 268.117 269.128L267.858 269.208C262.72 270.728 262.762 269.063 267.929 267.329L268.321 267.201L268.63 267.106ZM264.195 258.139C274.238 256.186 280.667 256.353 283.48 258.639C285.052 259.916 288.111 259.066 290.429 258.445C296.486 256.821 303.929 257.733 308.704 260.659L308.971 260.826C309.599 261.23 310.153 261.503 310.654 261.676C312.069 261.467 313.393 261.312 314.627 261.21L314.959 261.184C316.265 260.737 316.521 260.489 320.395 261.08C321.074 261.184 324.592 262.036 325.669 262.91C327.24 264.187 330.299 263.337 332.616 262.716C338.673 261.093 348.505 263.429 353.28 266.355L353.548 266.523C358.338 269.6 357.956 271.361 353.375 268.567L353.149 268.426C349.003 265.762 340.307 263.252 334.671 264.109C334.671 264.109 329.836 265.039 327.804 264.931C324.308 264.745 324.538 263.604 319.998 262.984C315.457 262.363 310.049 263.896 307.637 262.174C302.958 259.613 296.111 258.831 290.402 260.251L289.185 260.571C287.014 261.138 284.469 261.668 283.083 260.541C278.709 256.988 266.409 259.124 264.195 258.139ZM271.359 247.458C281.402 245.506 287.831 245.672 290.644 247.958C292.216 249.235 295.274 248.385 297.592 247.764C303.763 246.11 311.375 247.088 316.136 250.147C320.926 253.224 329.33 248.7 335.519 250.401C339.169 251.403 342.228 254.518 345.803 253.62L346.042 253.555C349.05 252.653 355.995 254.3 366.879 258.495C362.701 258.762 350.633 254.075 345.974 255.362L345.644 255.457C341.967 256.56 338.853 253.328 335.122 252.303C328.933 250.602 320.529 255.127 315.738 252.049C311.072 249.052 303.669 248.053 297.566 249.57L296.349 249.892C294.178 250.458 291.633 250.988 290.247 249.862C285.873 246.308 273.573 248.443 271.359 247.458ZM283.299 235.355C292.254 233.402 297.986 233.569 300.495 235.855C301.896 237.131 304.624 236.281 306.69 235.66C312.193 234.006 318.979 234.985 323.224 238.043C327.496 241.121 334.99 236.596 340.509 238.296C343.763 239.299 346.491 242.414 349.678 241.517L349.891 241.45C352.574 240.548 358.767 242.195 368.471 246.391C364.747 246.657 353.986 241.97 349.832 243.258L349.536 243.354C346.257 244.456 343.48 241.224 340.154 240.199C334.636 238.499 327.142 243.023 322.87 239.945C318.71 236.948 312.109 235.949 306.667 237.467L305.582 237.788C303.646 238.355 301.377 238.883 300.14 237.757C296.24 234.204 285.273 236.34 283.299 235.355ZM292.851 219.691C300.635 217.738 305.617 217.905 307.798 220.191C309.015 221.467 311.386 220.617 313.181 219.996C317.965 218.342 323.863 219.32 327.553 222.379C331.265 225.457 337.779 220.932 342.575 222.632C345.403 223.635 347.775 226.75 350.545 225.853L350.73 225.786C353.062 224.884 358.444 226.531 366.879 230.727C363.641 230.993 354.289 226.306 350.679 227.594L350.422 227.69C347.572 228.792 345.158 225.561 342.267 224.535C337.471 222.835 330.957 227.359 327.244 224.281C323.628 221.284 317.892 220.285 313.162 221.803L312.219 222.124C310.536 222.691 308.564 223.219 307.489 222.093C304.099 218.54 294.568 220.675 292.851 219.691ZM296.831 205.45C304.188 203.498 308.898 203.665 310.959 205.95C312.11 207.227 314.351 206.377 316.049 205.756C320.57 204.102 326.145 205.08 329.633 208.139C333.142 211.217 339.299 206.692 343.833 208.393C346.506 209.396 348.748 212.51 351.366 211.612L351.541 211.547C353.744 210.645 358.833 212.291 366.805 216.487C363.745 216.753 354.905 212.066 351.492 213.354L351.25 213.449C348.556 214.552 346.275 211.32 343.542 210.295C339.008 208.595 332.851 213.119 329.342 210.041C325.924 207.044 320.501 206.045 316.03 207.563L315.138 207.884C313.548 208.451 311.683 208.98 310.668 207.854C307.464 204.3 298.453 206.435 296.831 205.45ZM313.171 186.381C317.663 184.611 323.467 185.93 326.409 189.462C327.504 190.777 329.781 190.006 331.504 189.444C336.093 187.946 341.622 189.114 344.975 192.29C348.35 195.486 354.697 191.177 359.154 193.031C361.841 194.15 363.982 197.457 366.721 196.447C370.082 195.209 374.208 195.87 376.907 198.037L376.897 198.721L376.886 200.228C374.203 197.824 369.859 197.045 366.348 198.339C363.609 199.349 361.468 196.041 358.781 194.923C354.323 193.068 347.977 197.378 344.602 194.182C341.316 191.069 335.94 189.885 331.407 191.248L330.503 191.538C328.889 192.05 327.003 192.514 326.037 191.354C322.988 187.693 316.864 186.41 312.313 188.478L312.901 186.491L313.171 186.381ZM326.004 172.953C329.334 169.094 337.172 169.686 339.734 173.99C340.55 175.361 342.84 175.152 344.404 174.477L345.505 173.985L345.878 173.821C347.002 173.344 348.161 172.985 349.302 173.327C351.071 173.859 351.756 175.792 353.262 176.778C355.313 178.121 358.147 177.376 360.68 177.191C363.162 177.009 366.391 178.246 366.126 180.401L366.104 180.539C365.861 181.826 367.327 182.924 368.77 183.12C370.214 183.317 371.668 182.927 373.125 182.84C376.03 182.667 378.996 183.789 380.884 185.771L380.554 187.707C380.521 188.049 380.484 188.391 380.441 188.735C380.336 187.144 379.046 185.654 377.411 184.934C375.507 184.096 373.26 184.129 371.179 184.499L370.296 184.661C369.406 184.817 368.504 184.917 367.67 184.639C364.844 183.696 365.079 179.388 362.242 178.474C359.984 177.746 357.604 179.802 355.248 179.396C352.525 178.925 351.426 175.51 348.7 175.051C346.325 174.651 344.159 176.755 341.755 176.544C339.258 176.325 337.906 173.844 335.785 172.647C332.926 171.032 329.201 171.97 326.004 172.953Z" fill="#A0B5B9"/>
<path fill-rule="evenodd" clip-rule="evenodd" d="M388.723 133.193C402.153 133.234 412.752 143.425 411.846 155.422C411.846 155.422 396.186 216.362 404.123 238.022C407.194 246.402 451.529 272.478 449.655 275.157L443.399 288.565C441.176 291.739 373.128 251.023 373.128 251.023C366.599 246.388 365.386 154.224 365.386 154.224C365.257 142.617 375.758 133.152 388.723 133.193Z" fill="white"/>
<path d="M459.211 277.576L451.214 292.305L451.054 292.699C450.389 294.225 447.846 295.159 447.519 295.234L447.471 295.234L442.748 292.734C442.207 292.328 441.911 290.047 442.483 287.926L442.617 287.48C442.617 287.48 446.361 275.716 449.462 272.746C451.271 271.013 461.716 272.746 459.211 277.576Z" fill="white"/>
<path fill-rule="evenodd" clip-rule="evenodd" d="M345.288 413.409H326.196C326.196 413.409 348.602 361.376 348.602 347.721C348.602 343.486 330.99 349.867 333.545 343.486C337.058 334.713 349.215 319.023 346.221 311.146C343.089 302.91 331.409 299.925 321.237 296.587C319.288 295.948 354.844 298.156 364.596 291.217C377.461 282.063 367.016 261.849 370.471 268.976C374.639 277.576 401.725 299.15 396.356 322.511C391.126 345.27 345.288 413.409 345.288 413.409Z" fill="white"/>
<path fill-rule="evenodd" clip-rule="evenodd" d="M338.669 423.443L336.708 422.86C336.62 422.834 336.611 422.714 336.693 422.675L338.564 421.765V419.659C338.564 419.576 338.66 419.529 338.726 419.581L340.301 420.819L342.896 419.596C342.986 419.554 343.076 419.654 343.024 419.739L341.563 422.123L344.342 424.72C344.418 424.791 344.349 424.916 344.249 424.89L340.403 423.898L338.854 426.339C338.8 426.424 338.669 426.386 338.669 426.285V425.036V423.443Z" fill="#A0B5B9"/>
<path d="M180.18 469.221C204.813 469.221 229.446 469.222 254.079 469.217C255.216 469.217 256.358 469.125 256.31 470.493C256.273 471.56 255.566 472.046 253.922 472.046C243.561 472.046 233.2 472.046 222.681 472.046C208.303 472.046 194.083 472.047 179.864 472.041C178.972 472.041 177.984 472.238 177.623 471.185C177.262 470.131 177.757 469.364 179.072 469.227C179.436 469.189 179.811 469.221 180.18 469.221ZM459.53 469.226C484.158 469.226 508.785 469.227 533.413 469.227C535.404 469.227 535.956 469.723 535.613 471.243C535.568 471.441 535.38 471.733 535.193 471.772C534.515 471.913 533.808 472.038 533.112 472.039C524.656 472.056 516.2 472.05 507.586 472.05C491.414 472.05 475.401 472.052 459.387 472.048C458.518 472.048 457.59 472.19 457.12 471.301C456.58 470.281 457.065 469.44 458.422 469.235C458.779 469.181 459.16 469.226 459.53 469.226ZM268.634 468.497C269.459 468.541 270.286 468.609 271.111 468.609C329.407 468.614 387.702 468.613 445.998 468.628C446.513 468.628 447.232 468.725 447.497 468.993C447.887 469.39 448.289 470.313 448.1 470.43C447.396 470.863 446.453 471.303 445.598 471.306C429.743 471.355 413.887 471.342 398.032 471.342H339.366C316.058 471.342 292.909 471.342 269.76 471.344C268.561 471.344 267.336 471.319 266.739 470.331C266.324 469.644 267.628 468.445 268.634 468.497ZM478.285 416.654C479.61 416.517 481.015 416.43 482.299 416.674C484.34 417.062 485.187 418.814 484.563 420.644C483.429 423.97 481.161 426.501 477.864 428.298C473.342 430.762 468.792 433.185 464.174 435.696C456.772 438.365 449.386 440.837 442.152 443.62C438.912 444.867 435.666 445.058 432.292 444.969C431.697 444.953 431.108 444.722 430.516 444.723C430.158 444.723 429.799 444.979 429.441 445.12C429.627 445.382 429.762 445.695 430.01 445.895C430.497 446.285 431.006 446.684 431.58 446.953C435.953 449.002 438.48 454.595 436.935 458.791C436.177 460.851 435.259 463.039 433.722 464.643C432.473 465.947 430.294 466.808 428.35 467.259C425.28 467.972 422.076 467.995 418.981 466.99C416.275 466.112 414.332 464.488 412.899 462.292C409.418 456.957 410.848 452.329 414.55 448.022C415.308 447.14 416.788 446.767 417.889 446.099C418.297 445.851 418.572 445.43 418.907 445.087C418.333 444.961 417.764 444.754 417.185 444.732C416.65 444.712 416.105 444.969 415.564 444.969C389.972 444.982 364.379 445.004 338.787 444.968C330.229 444.956 321.671 444.781 313.113 444.702C309.704 444.671 306.294 444.698 302.884 444.698C302.019 444.698 301.152 444.681 300.288 444.71C300.094 444.717 299.906 444.886 299.716 444.981C299.897 445.095 300.073 445.217 300.26 445.322C301.944 446.259 303.886 446.96 305.271 448.169C311.738 453.814 309.652 464.973 299.976 467.209C292.148 469.018 285.23 466.689 282.906 458.373C281.473 453.247 285.304 447.134 291.097 445.532C291.465 445.431 291.759 445.116 292.087 444.9C291.751 444.738 291.417 444.435 291.081 444.434C283.443 444.407 276.284 442.42 269.264 440.045C259.835 436.855 250.667 433.134 242.178 428.224C240.561 427.288 238.849 426.356 238.276 424.397C237.24 420.851 239.244 418.117 242.945 417.218C246.886 416.261 250.664 417.268 254.385 418.336C264.436 421.22 274.476 424.136 284.521 427.033C286.625 427.64 288.728 428.251 290.849 428.805C291.569 428.993 292.346 429.089 293.097 429.091C299.561 429.113 306.026 429.097 312.49 429.118C312.968 429.12 313.789 429.239 313.859 429.455C314.068 430.104 313.983 430.829 314.013 431.524C313.863 431.478 313.708 431.382 313.564 431.394C312.655 431.468 311.751 431.607 310.84 431.649C306.425 431.853 302.006 432.008 297.592 432.229C293.111 432.453 288.885 431.32 284.697 430.2C279.624 428.845 274.652 427.192 269.622 425.707C264.727 424.262 259.805 422.891 254.915 421.435C253.199 420.924 251.591 419.967 249.846 419.736C247.875 419.474 245.765 419.615 243.8 419.962C243.032 420.098 242.171 421.191 241.929 421.988C241.606 423.05 241.827 424.097 243.217 424.888C249.672 428.558 256.476 431.602 263.463 434.364C269.812 436.872 276.365 438.828 283.059 440.422C284.133 440.678 285.294 440.698 286.418 440.717C293.314 440.833 300.215 440.844 307.109 441.032C314.134 441.223 321.153 441.58 328.174 441.861C333.014 442.054 337.855 442.233 342.694 442.433C344.4 442.503 346.107 442.73 347.806 442.682C349.578 442.631 351.337 442.266 353.11 442.172C354.116 442.119 355.139 442.404 356.156 442.416C359.228 442.452 362.308 442.534 365.374 442.404C369.645 442.221 373.904 441.806 378.175 441.615C379.346 441.563 380.538 442.098 381.726 442.119C385.539 442.189 389.356 442.182 393.171 442.135C396.889 442.089 400.609 442.002 404.324 441.843C406.149 441.765 408.001 441.177 409.777 441.349C416.946 442.045 424.155 441.864 431.315 442.285C436.58 442.595 441.243 441.47 445.86 439.782C452.11 437.498 458.308 435.078 464.39 432.459C468.424 430.723 472.264 428.608 476.097 426.526C478.402 425.274 480.16 423.508 480.883 421.081C481.248 419.858 480.486 418.922 479.115 418.895C474.86 418.811 470.975 420.131 467.112 421.461C461.495 423.395 455.9 425.385 450.325 427.413C446.382 428.848 442.492 430.4 438.562 431.864C437.975 432.082 437.299 432.205 436.663 432.207C429.881 432.231 423.098 432.222 416.316 432.222C410.893 432.222 405.47 432.228 400.047 432.219C398.693 432.217 397.338 432.176 395.984 432.131C395.898 432.128 395.757 431.935 395.748 431.823C395.718 431.447 395.799 431.058 395.724 430.692C395.54 429.784 395.976 429.644 396.912 429.65C403.588 429.689 410.265 429.708 416.941 429.66C423.256 429.615 429.577 429.602 435.88 429.315C437.823 429.226 439.779 428.414 441.621 427.707C451.393 423.957 461.265 420.438 471.437 417.647C473.628 417.045 475.987 416.89 478.285 416.654ZM297.185 447.907C292.084 447.247 287.887 449.766 286.681 455.045C286.681 455.863 286.63 456.685 286.69 457.499C287.03 462.094 292.992 465.663 298.25 464.312C301.992 463.35 304.15 461.35 304.915 457.839C306.087 452.455 302.349 448.576 297.185 447.907ZM431.665 451.076C427.949 447.458 423.656 446.794 418.537 449.44C415.579 450.969 414.281 454.564 414.529 456.843C414.797 459.296 416.168 461.331 418.262 462.925C420.774 464.836 423.713 464.84 426.739 464.258C433.46 462.965 435.477 455.158 431.665 451.076ZM421.31 454.931C422.311 452.71 424.512 452.167 426.619 453.71C427.815 456.138 427.733 457.131 426.308 458.451C425.335 459.353 423.574 459.505 422.468 458.784C421.289 458.015 420.741 456.194 421.31 454.931ZM292.506 454.437C294.78 452.444 296.632 452.358 298.49 453.897C299.378 454.633 299.65 456.471 298.7 457.392C297.787 458.277 296.807 458.714 295.154 458.453C292.084 457.969 291.678 456.152 292.506 454.437ZM454.007 56.2503C456.947 56.3385 458.46 58.0558 459.899 60.0178C461.52 62.2271 462.832 64.531 463.283 67.1643C463.832 70.3709 463.537 73.3498 460.988 75.9905C458.915 78.1382 456.501 79.78 453.775 81.1575C453.413 81.3403 453.184 82.3084 453.384 82.7219C455.439 86.9606 455.592 91.4291 455.391 95.9153C455.296 98.0358 454.638 100.134 454.513 102.256C454.339 105.216 455.016 108.064 456.343 110.817C457.244 112.684 456.611 114.452 455.101 115.92C454.479 116.525 453.486 116.894 453.052 117.571C452.479 118.465 452.079 119.542 451.986 120.568C451.87 121.841 452.191 123.142 452.241 124.433C452.315 126.338 451.504 127.968 450.412 129.594C448.435 132.537 445.825 134.702 442.039 135.41C438.794 136.018 435.425 136.054 432.292 135.099C428.735 134.014 425.267 132.626 421.92 131.091C420.544 130.46 419.583 129.101 418.438 128.07C417.914 127.598 417.649 127.46 416.953 128.119C414.465 130.476 412.656 133.154 411.194 136.111C410.356 137.806 410.953 139.188 411.533 140.68C412.355 142.796 413.237 144.885 413.173 147.198C413.097 149.965 413.372 152.753 413.091 155.498C412.833 158.021 412.049 160.501 411.477 162.996C410.776 166.056 410.133 169.129 409.312 172.163C408.793 174.083 407.921 175.924 407.337 177.831C405.847 182.694 404.263 187.541 403.042 192.459C402.21 195.809 401.729 199.256 401.45 202.683C401.178 206.01 401.392 209.368 401.338 212.711C401.304 214.755 401.077 216.798 401.096 218.84C401.129 222.313 401.107 225.8 401.449 229.254C401.745 232.247 402.379 235.229 403.113 238.166C403.716 240.579 405.566 242.444 407.401 244.193C409.024 245.739 410.948 247.03 412.665 248.502C413.751 249.433 414.593 250.605 415.732 251.472C419.356 254.229 423.088 256.872 426.739 259.602C429.579 261.726 432.334 263.941 435.174 266.064C437.126 267.522 439.105 268.96 441.172 270.282C443.153 271.547 445.323 272.575 447.297 273.849C448.915 274.893 450.046 273.742 451.333 273.354C454.01 272.545 456.128 272.851 457.132 275.154C457.699 276.453 459.107 277.385 459.031 279.046C459.012 279.462 460.26 279.977 460.983 280.359C463.023 281.435 465.087 282.475 467.152 283.512C468.44 284.158 469.86 284.641 471.017 285.435C472.571 286.5 473.837 287.901 475.391 288.966C477.582 290.467 478.476 292.739 479.832 294.704C480.837 296.162 481.418 297.951 481.753 299.66C482.203 301.965 482.386 304.335 482.376 306.676C482.371 307.654 481.707 308.705 481.098 309.586C480.442 310.536 479.459 310.671 478.51 309.753C478.397 309.643 478.216 309.589 478.066 309.509C478.043 309.69 478.025 309.872 477.997 310.053C477.786 311.414 477.726 312.816 477.295 314.119C477.089 314.74 476.198 315.561 475.58 315.587C474.915 315.616 474.2 314.828 473.52 314.379C473.309 314.24 473.134 314.055 472.958 313.878C472.813 313.733 472.692 313.57 472.561 313.414C472.466 313.594 472.376 313.776 472.275 313.953C471.986 314.463 471.813 315.086 471.377 315.458C470.21 316.452 468.641 316.064 468.16 314.668C467.563 312.938 467.207 311.135 466.519 309.437C465.873 307.841 465.668 306.121 464.168 304.748C463.05 303.725 462.535 302.163 461.792 300.823C460.538 298.565 458.467 297.088 456.071 295.896C455.419 295.572 454.771 295.216 454.205 294.785C452.949 293.831 452.079 294.351 451.315 295.323C450.053 296.928 447.96 297.518 446.014 296.594C443.032 295.177 440.596 293.316 439.786 290.128C439.636 289.539 438.663 289.018 437.949 288.658C432.24 285.779 426.44 283.041 420.793 280.069C415.956 277.523 411.257 274.764 406.548 272.029C398.482 267.343 390.452 262.609 382.415 257.884C379.911 256.412 377.437 254.901 374.943 253.417C374.533 253.174 374.101 252.954 373.656 252.766C372.33 252.206 371.941 252.408 371.835 253.679C371.831 253.726 371.834 253.774 371.834 253.822C371.728 260.521 371.625 267.221 371.514 273.921C371.483 275.809 372.818 277.167 373.854 278.602C377.049 283.028 380.311 287.417 383.605 291.785C385.872 294.792 388.347 297.679 390.506 300.744C391.454 302.09 391.853 303.747 392.493 305.266C392.821 306.046 393.217 306.814 393.434 307.619C394.717 312.368 394.139 317.08 392.871 321.74C391.995 324.959 391.162 328.212 389.889 331.312C388.524 334.638 386.656 337.797 385.029 341.038C384.106 342.878 383.213 344.73 382.331 346.586C380.835 349.733 379.347 352.882 377.877 356.038C376.274 359.477 374.831 362.982 373.069 366.354C371.134 370.057 368.953 373.66 366.81 377.273C364.501 381.166 362.078 385.007 359.765 388.899C357.618 392.511 355.59 396.18 353.435 399.788C351.854 402.436 350.196 405.049 348.49 407.634C347.07 409.785 347.482 410.787 349.125 412.769C350.906 414.917 353.673 415.636 356.418 416.197C364.074 417.761 371.747 419.26 379.42 420.76C381.034 421.076 382.691 421.221 384.299 421.558C388.549 422.448 390.682 425.244 391.819 428.713C392.546 430.933 392.761 433.316 390.785 435.16C390.038 435.857 388.675 436.375 387.59 436.378C364.812 436.447 342.032 436.422 319.254 436.456C318.228 436.458 318.153 436.182 318.076 435.375C317.881 433.348 317.172 431.331 317.221 429.321C317.363 423.573 319.615 418.425 323.554 413.906C324.154 413.217 325.546 413.019 325.999 412.303C327.147 410.486 328.132 408.553 328.886 406.576C330.096 403.41 331.297 400.213 332.073 396.948C332.872 393.583 334.468 390.45 335.08 387.013C335.549 384.379 337.007 381.87 338.146 379.35C340.496 374.148 343.043 369.014 345.283 363.776C346.809 360.207 347.924 356.499 349.275 352.868C350.313 350.077 351.368 347.288 352.557 344.547C352.874 343.817 352.606 343.938 352.068 343.874C347.05 343.278 342.105 343.33 337.424 345.328C336.399 345.766 335.677 345.675 334.999 344.913C334.305 344.134 334.665 343.566 335.279 342.851C338.937 338.59 341.209 333.736 342.952 328.616C344.236 324.844 345.777 321.135 345.741 317.138C345.717 314.541 345.002 312.21 343.005 310.037C341.257 308.135 340.071 305.866 337.328 304.842C335.204 304.05 333.139 303.13 331.013 302.343C326.943 300.835 322.895 299.261 318.747 297.946C315.824 297.019 312.749 296.476 309.743 295.758C309.411 295.679 309.086 295.574 308.755 295.49C306.617 294.943 304.749 295.038 303.297 296.884C302.533 297.855 301.427 298.609 300.317 299.461C296.862 302.509 293.56 305.552 290.271 308.607C287.871 310.836 285.552 313.139 283.08 315.301C280.053 317.949 276.996 320.581 273.784 323.043C269.799 326.098 265.716 329.059 261.541 331.901C256.815 335.117 251.976 338.203 247.116 341.254C244.371 342.978 241.717 344.837 238.202 345.373C236.568 345.622 235.123 346.741 233.497 347.182C228.529 348.529 223.535 349.812 218.51 350.976C215.425 351.69 212.276 352.2 209.133 352.69C207.178 352.995 195.975 354.588 188.522 355.555C181.069 356.522 156.421 356.522 150.267 356.407C146.814 356.343 143.362 356.236 139.911 356.118C139.157 356.093 138.333 356.087 137.671 355.819C134.199 354.412 131.532 356.014 128.808 357.566C125.319 359.554 123.183 362.545 121.073 365.609C118.745 368.988 116.129 372.209 113.824 375.6C111.957 378.345 110.329 381.224 108.661 384.073C106.798 387.255 104.002 389.105 99.9918 389.79C97.2598 390.257 95.0638 389.09 92.6803 388.532C91.4192 388.236 90.4027 385.187 90.8522 383.981C94.9094 373.1 98.9922 362.226 103.022 351.337C105.463 344.741 107.83 338.123 110.218 331.512C110.884 329.669 111.461 327.799 112.184 325.975C112.332 325.602 112.944 325.142 113.36 325.127C116.367 325.02 119.254 325.679 121.997 326.686C127.182 328.589 131.173 331.8 134.102 336.073C134.879 337.207 136.234 337.615 137.944 337.345C140.028 337.016 142.162 336.89 144.215 336.454C148.752 335.491 153.38 336.057 157.945 335.639C160.815 335.376 163.722 335.377 166.576 335.026C170.953 334.487 175.298 333.742 179.658 333.095C182.981 332.602 186.322 332.188 189.63 331.62C192.75 331.085 195.844 330.416 198.939 329.765C203.087 328.892 207.223 327.979 211.365 327.082C211.557 327.041 211.748 326.996 211.94 326.952C211.73 326.852 211.514 326.76 211.312 326.649C209.919 325.88 208.391 325.249 207.17 324.302C205.26 322.821 205.913 320.359 208.339 319.703C210.189 319.204 212.096 318.702 214.006 318.587C217.613 318.371 220.771 316.956 224.117 316.02C226.379 315.387 227.737 314.195 228.873 312.373C229.805 310.878 231.475 309.769 232.644 308.371C235.146 305.381 237.579 302.342 239.947 299.265C240.836 298.11 241.414 296.768 242.232 295.565C243.063 294.343 243.909 293.106 244.935 292.018C247.334 289.474 249.737 286.918 252.346 284.551C254.402 282.687 256.771 281.1 258.993 279.382C259.353 279.104 259.698 278.802 260.001 278.475C260.52 277.913 260.734 277.445 259.951 276.781C257.714 274.883 255.335 273.042 254.104 270.421C253.098 268.28 252.013 266.124 251.434 263.877C250.746 261.205 251.024 258.484 251.915 255.791C253.161 252.023 255.77 249.168 259.304 247.118C263.1 244.917 267.239 243.197 271.13 241.118C272.531 240.369 273.711 239.246 274.877 238.192C280.195 233.379 283.729 227.447 287.436 221.661C290.662 216.627 293.557 211.416 296.442 206.214C298.007 203.391 299.152 200.383 300.67 197.536C301.646 195.705 303.016 194.046 304.099 192.256C305.339 190.209 306.308 188.018 307.683 186.052C308.523 184.852 309.899 183.95 311.047 182.926C311.909 182.157 312.802 181.415 313.664 180.645C314.439 179.951 315.205 179.249 315.948 178.528C320.897 173.722 325.941 168.99 330.753 164.076C334.763 159.981 338.58 155.725 342.328 151.432C344.482 148.965 346.329 146.283 348.312 143.697C348.396 143.587 348.444 143.453 348.542 143.357C351.791 140.156 354.926 136.853 358.328 133.787C361.868 130.597 365.923 127.952 370.325 125.749C372.053 124.884 373.623 123.717 375.428 123.034C377.771 122.148 380.266 121.077 382.716 121.032C387.312 120.948 392.089 120.995 395.947 123.901C396.678 124.451 396.873 124.321 396.942 123.585C397.161 121.244 398.129 118.669 397.354 116.628C396.656 114.788 396.926 112.912 396.111 111.15C394.446 107.552 392.987 103.876 391.499 100.215C391.095 99.2213 390.766 98.1775 390.616 97.1321C390.399 95.6182 390.473 94.0704 390.249 92.5579C389.77 89.3352 391.334 86.5746 392.533 83.7141C394.786 78.335 399.008 74.2659 403.566 70.4456C407.49 67.1564 413.992 66.1219 419.25 65.3108C421.825 64.9135 444.96 64.5393 446.383 64.4729C447.803 64.4065 448.766 63.8152 449.727 63.1809C451.907 61.7427 452.307 59.4338 452.872 57.2542C453.026 56.6576 453.051 56.2216 454.007 56.2503ZM323.189 431.873C322.872 431.873 322.449 431.758 322.256 431.897C321.803 432.223 321.397 432.642 321.122 433.096C321.064 433.192 321.612 433.767 321.953 433.835C322.892 434.022 323.868 434.139 324.83 434.14C338.326 434.158 351.822 434.151 365.477 434.009C367.793 433.867 370.107 433.69 372.424 433.589C377.31 433.376 382.2 433.214 387.085 432.985C387.406 432.969 387.704 432.557 388.012 432.329C387.733 432.178 387.471 431.98 387.17 431.888C386.932 431.816 386.646 431.873 386.381 431.873H323.189ZM346.255 414.256C345.5 413.051 344.838 413.142 344.076 414.466C343.415 415.614 342.597 416.621 341.292 417.22C340.597 417.539 339.862 417.796 339.125 418.03C335.466 419.19 331.906 419.336 328.698 416.99C327.134 415.847 326.624 415.951 325.404 417.374C323.374 419.742 322.362 422.514 321.326 425.262C320.241 428.14 320.83 428.741 324.25 428.741H385.588C386.011 428.741 386.492 428.852 386.841 428.708C387.156 428.578 387.576 427.966 387.525 427.912C386.612 427.018 385.783 425.91 384.631 425.387C382.901 424.601 380.961 424.136 379.062 423.706C372.055 422.119 365.027 420.603 357.689 419.06C356.549 418.775 355.416 418.47 354.269 418.209C351.214 417.515 348.031 417.089 346.255 414.256ZM379.649 343.054C379.362 343.104 379.069 343.135 378.791 343.209C377.613 343.522 376.456 344.045 375.26 344.129C372.244 344.341 369.21 344.433 366.183 344.432C363.104 344.431 360.024 344.254 356.944 344.19C356.72 344.185 356.368 344.437 356.278 344.641C355.414 346.597 354.53 348.55 353.772 350.54C352.127 354.865 350.53 359.206 348.954 363.551C346.952 369.068 344.488 374.392 341.773 379.675C339.256 384.573 337.38 389.788 336.189 395.157C335.499 398.267 334.397 401.308 333.397 404.358C332.567 406.888 331.62 409.388 330.715 411.899C330.166 413.425 330.65 414.851 331.991 415.036C333.486 415.243 335.03 415.168 336.712 415.073C338.239 414.884 339.549 414.256 340.412 413.148C342.056 411.035 343.612 408.864 345.121 406.67C346.492 404.677 347.775 402.632 349.056 400.59C352.866 394.518 357.156 388.694 360.331 382.294C362.218 378.49 364.546 374.862 366.665 371.15C367.87 369.037 369.163 366.957 370.218 364.784C371.701 361.732 372.721 358.476 374.446 355.547C376.671 351.771 377.903 347.713 379.46 343.74C379.546 343.519 379.587 343.283 379.649 343.054ZM121.917 330.228C120.596 329.513 119.381 329.939 118.856 331.187C117.907 333.444 116.911 335.689 116.059 337.977C114.599 341.899 113.284 345.864 111.816 349.783C110.068 354.449 108.908 359.263 106.682 363.821C103.383 370.576 100.716 377.562 99.4537 384.903C99.3871 385.29 99.4794 385.956 99.736 386.073C100.126 386.251 100.793 386.186 101.22 385.999C101.932 385.688 102.681 385.299 103.179 384.767C104.744 383.096 106.199 381.342 107.697 379.336C112.041 373.119 116.443 366.933 120.701 360.669C122.36 358.228 124.069 356.018 127.442 355.359C128.694 355.114 128.763 354.531 127.933 353.593C127.098 352.649 126.049 351.722 125.667 350.627C125.26 349.463 125.465 348.108 125.509 346.839C125.619 343.734 126.6 341.083 130.038 339.574C131.057 339.127 131.669 338.453 130.646 337.133C128.341 334.158 125.285 332.052 121.917 330.228ZM115.266 328.791C114.858 329.033 114.246 329.191 114.073 329.53C112.954 331.72 111.861 333.926 110.895 336.174C109.857 338.589 108.949 341.05 108.02 343.502C107.043 346.082 106.043 348.657 105.17 351.265C103.84 355.236 102.631 359.239 101.334 363.219C100.286 366.432 99.2897 369.663 98.0807 372.827C96.6231 376.643 94.9645 380.397 93.5524 384.32C94.7456 385.729 95.2022 385.74 95.9606 384.124C97.0976 381.701 98.1776 379.248 99.0885 376.75C100.249 373.568 101.149 370.309 102.285 367.118C103.924 362.515 105.719 357.956 107.369 353.356C109.531 347.325 111.617 341.271 113.737 335.228C114.37 333.424 115.037 331.628 115.613 329.81C115.704 329.523 115.392 329.133 115.266 328.791ZM217.709 330.391C217.117 329.421 216.445 329.011 215.306 329.366C207.939 331.668 200.176 332.38 192.62 333.92C188.374 334.786 167.003 338.073 165.139 338.193C162.471 338.364 159.802 338.745 157.138 338.718C152.643 338.673 148.236 339.107 143.833 339.871C140.859 340.387 137.795 340.499 134.838 341.072C129.764 342.055 128.063 345.93 129.371 349.717C129.622 350.444 130.519 351.265 131.324 351.52C134.995 352.682 138.838 352.983 142.722 353.01C145.487 353.029 148.25 353.181 151.013 353.282C156.117 353.468 161.221 353.661 166.325 353.849C166.642 353.861 166.961 353.84 167.278 353.852C169.777 353.944 172.289 354.228 174.772 354.091C178.687 353.875 182.581 353.37 186.485 352.998C188.62 352.795 190.773 352.697 192.893 352.408C196.614 351.903 200.347 351.411 204.018 350.687C208.653 349.772 213.232 348.629 218.152 347.585C218.532 347.49 218.908 347.38 219.293 347.303C222.639 346.634 225.991 345.984 229.333 345.294C229.814 345.195 230.25 344.915 230.707 344.719C230.302 344.506 229.877 344.318 229.501 344.071C229.205 343.877 228.955 343.621 228.71 343.372C226.352 340.982 223.875 338.675 221.69 336.164C220.145 334.389 218.92 332.375 217.709 330.391ZM262.584 278.916C262.519 278.867 262.221 278.933 262.188 279.003C260.71 282.197 257.669 284.14 254.97 286.381C252.611 288.34 250.27 290.349 248.202 292.548C246.374 294.492 244.919 296.719 243.33 298.838C241.662 301.062 239.671 303.163 238.463 305.575C236.55 309.398 233.583 312.444 230.487 315.411C227.16 318.6 222.514 319.602 218.058 320.788C215.728 321.409 213.293 321.714 210.914 322.193C210.601 322.256 210.334 322.502 210.047 322.663C210.358 322.997 210.694 323.636 210.978 323.618C213.483 323.459 215.186 324.96 217.05 325.987C218.965 327.041 220.844 328.176 221.96 330.139C222.905 331.803 224.276 333.278 225.51 334.803C226.786 336.38 228.125 337.916 229.594 339.613C231.08 340.849 232.558 342.094 234.064 343.31C234.234 343.446 234.621 343.535 234.811 343.457C237.798 342.24 240.965 341.265 243.705 339.695C249.895 336.147 255.817 332.226 261.952 328.597C268.98 324.439 274.973 319.199 281.17 314.169C283.077 312.621 284.848 310.935 286.645 309.281C289.161 306.966 291.644 304.622 294.14 302.29C296.649 299.947 299.186 297.626 301.623 295.224C301.848 295.002 301.566 293.893 301.308 293.823C298.85 293.158 296.292 292.769 293.866 292.03C288.022 290.249 282.164 288.479 276.444 286.409C271.412 284.589 266.751 282.088 262.584 278.916ZM371.122 280.952C370.829 281.351 370.376 281.72 370.275 282.155C369.978 283.436 369.868 284.752 369.599 286.039C368.881 289.473 367.043 292.111 363.426 293.809C358.44 296.149 353.081 297.148 347.604 297.711C344.447 298.036 341.231 298.088 338.051 297.995C335.104 297.91 332.17 297.454 329.227 297.198C328.82 297.163 328.39 297.34 327.97 297.419C328.257 297.625 328.537 297.841 328.835 298.033C328.95 298.108 329.105 298.133 329.4 298.323C330.169 298.607 330.97 298.838 331.702 299.186C335.297 300.897 339.592 301.398 342.516 304.287C343.488 305.247 344.704 306.006 345.764 306.898C347.347 308.229 347.743 310.073 348.309 311.833C349.615 315.896 349.319 320.1 348.173 323.996C346.571 329.445 345.033 335.014 341.633 339.911C341.257 340.454 341.061 340.744 342.094 340.771C347.939 340.921 353.781 341.167 359.627 341.307C362.873 341.385 366.124 341.299 369.373 341.326C372.844 341.355 376.216 340.907 379.375 339.589C380.532 339.106 382.004 338.586 382.55 337.698C383.792 335.679 384.671 333.457 385.472 331.252C386.645 328.025 387.806 324.776 388.624 321.468C389.321 318.643 389.675 315.73 389.893 312.838C390.011 311.276 389.385 309.68 389.347 308.095C389.278 305.181 387.648 302.84 386.109 300.464C385.504 299.53 384.597 298.758 383.922 297.855C379.925 292.51 375.958 287.146 371.97 281.796C371.738 281.485 371.407 281.232 371.122 280.952ZM459.426 281.566C459.122 281.418 458.745 281.148 458.413 281.797C456.951 284.655 455.259 287.424 453.929 290.327C453.634 290.973 452.889 292.275 454.715 292.975C456.562 293.683 458.379 294.701 459.836 295.936C464.233 299.663 466.154 304.676 468.125 309.62C468.67 310.989 468.987 312.431 469.413 313.838C469.486 314.079 469.578 314.315 469.661 314.553C469.945 314.367 470.376 314.236 470.492 313.987C471.301 312.248 471.544 310.5 470.941 308.61C470.447 307.062 470.279 305.421 470.103 303.81C470.073 303.53 470.724 303.19 471.06 302.878C471.288 303.147 471.631 303.387 471.724 303.689C472.108 304.927 472.417 306.184 472.912 307.576C473.336 309.316 473.709 311.068 474.224 312.785C474.33 313.137 474.968 313.36 475.36 313.642C475.615 313.318 476.073 313.003 476.091 312.669C476.173 311.177 476.402 309.629 476.069 308.196C475.551 305.966 474.736 303.773 473.811 301.647C473.413 300.731 474.521 300.641 474.453 300.031C474.998 300.344 475.67 300.569 476.054 300.998C476.43 301.418 476.483 302.061 476.732 302.584C477.499 304.196 478.238 305.823 479.12 307.384C479.31 307.72 480.055 307.804 480.545 308.004C480.755 307.588 481.147 307.169 481.142 306.754C481.128 305.465 481.013 304.172 480.842 302.891C480.694 301.78 480.638 300.595 480.151 299.596C478.937 297.104 477.65 294.62 476.102 292.287C475.123 290.811 473.792 289.429 472.314 288.335C470.651 287.104 468.667 286.21 466.783 285.232C464.355 283.972 461.893 282.763 459.426 281.566ZM455.385 275.899C454.126 275.211 452.691 274.796 451.57 275.587C449.023 277.384 446.672 279.471 445.31 282.144C444.158 284.405 443.437 286.845 442.571 289.219C442.445 289.564 442.505 289.994 442.588 290.365C443.08 292.589 444.935 293.688 446.999 294.62C448.088 295.112 448.893 294.868 449.382 293.906C450.415 291.875 451.403 289.827 452.569 287.644C453.277 286.345 454.058 285.072 454.676 283.74C455.458 282.055 456.757 280.611 456.809 278.574C456.843 277.256 456.575 276.548 455.385 275.899ZM396.726 127.107C393.387 125.08 389.887 123.596 385.744 124.073C383.518 124.329 381.325 124.814 379.116 125.189C375.045 125.88 371.442 127.487 368.197 129.746C366.297 131.069 364.442 132.449 362.638 133.875C360.835 135.301 359.032 136.743 357.389 138.313C355.528 140.09 353.825 142.003 352.089 143.883C349.648 146.529 347.213 149.18 344.824 151.865C342.196 154.817 339.702 157.868 337.006 160.77C334.065 163.936 331.012 167.023 327.914 170.068C323.656 174.252 319.325 178.376 314.993 182.499C314.181 183.272 313.099 183.829 312.348 184.639C309.213 188.025 306.258 191.557 304.162 195.546C300.491 202.53 297.075 209.622 293.43 216.617C290.634 221.985 287.556 227.213 283.84 232.149C281.758 234.915 279.715 237.718 276.782 239.736C272.172 242.906 267.322 245.801 262.539 248.766C259.33 250.755 256.79 253.266 255.542 256.572C254.008 260.631 254.793 264.663 256.933 268.364C259.568 272.918 263.738 276.399 267.996 279.716C272.72 283.397 278.21 286.037 284.134 287.734C291.749 289.915 299.407 292.033 307.46 292.651C311.914 292.992 316.334 293.716 320.791 294.014C325.987 294.361 331.205 294.554 336.416 294.579C340.246 294.598 344.077 294.197 347.912 294.063C351.959 293.921 355.793 292.969 359.569 291.768C362.106 290.961 364.454 289.851 365.381 287.401C365.921 285.974 366.189 284.447 366.411 282.945C366.898 279.645 367.394 276.341 367.672 273.025C368.009 268.983 368.126 264.927 368.338 260.592C368.443 259.351 368.482 258.101 368.672 256.87C368.906 255.361 369.365 253.877 369.547 252.365C369.77 250.504 370.014 248.613 369.866 246.76C369.732 245.095 368.943 243.481 368.682 241.815C368.068 237.893 367.515 233.961 367.089 230.02C366.667 226.113 366.405 222.192 366.121 218.275C365.872 214.844 365.64 211.411 365.49 207.976C365.326 204.221 365.256 200.462 365.173 196.704C365.166 196.364 365.383 196.024 365.459 195.678C365.584 195.106 365.817 194.517 365.759 193.955C365.65 192.886 365.164 191.826 365.194 190.771C365.324 186.15 365.572 181.531 365.803 176.912C365.847 176.048 365.971 175.183 366.119 174.326C366.632 171.341 367.171 168.36 367.704 165.377C367.755 165.089 367.833 164.805 367.898 164.519C367.939 164.836 368.008 165.152 368.015 165.47C368.127 170.556 368.232 175.642 368.338 180.728C368.444 185.861 368.562 190.994 368.652 196.127C368.771 202.874 368.817 209.621 368.995 216.366C369.08 219.612 369.312 222.861 369.633 226.095C369.944 229.221 370.445 232.332 370.884 235.448C371.291 238.329 371.798 241.201 372.13 244.089C372.397 246.424 373.653 248.314 375.461 249.811C377.301 251.335 379.468 252.543 381.505 253.875C385.732 256.641 389.896 259.493 394.222 262.13C398.325 264.631 402.605 266.898 406.799 269.279C410.452 271.351 414.065 273.481 417.747 275.509C422.214 277.97 426.68 280.439 431.254 282.734C433.895 284.059 436.735 285.071 439.517 286.16C439.847 286.289 440.608 286.142 440.764 285.907C441.209 285.238 441.466 284.464 441.757 283.72C442.687 281.348 443.864 279.133 445.87 277.286C447.384 275.893 447.171 275.473 445.068 274.681C444.075 274.307 443.056 273.949 442.151 273.439C440.668 272.602 439.225 271.695 437.839 270.732C432.461 266.995 427.024 263.318 421.781 259.434C418.016 256.645 414.438 253.638 410.934 250.584C407.5 247.591 403.796 244.766 401.592 240.823C400.582 239.016 398.95 237.461 399.123 235.172C399.23 233.754 398.902 232.306 398.732 230.874C398.361 227.742 397.776 224.618 397.628 221.478C397.434 217.404 397.58 213.318 397.58 209.237C397.58 208.319 397.484 207.391 397.597 206.485C397.975 203.458 398.36 200.429 398.87 197.418C399.456 193.953 399.952 190.455 400.897 187.063C402.123 182.664 403.851 178.379 405.182 174.001C406.664 169.128 408.672 164.376 409.366 159.315C409.633 157.367 410.603 155.437 410.527 153.522C410.363 149.403 409.08 145.435 407.789 141.474C405.86 135.556 402.514 130.62 396.726 127.107ZM451.297 84.5715C450.844 83.3311 449.754 82.8325 448.332 83.2913C444.969 84.3759 441.525 85.3138 438.297 86.6633C435.798 87.7085 433.267 89.0049 431.323 90.7131C429.576 92.248 424.595 99.9788 424.594 105.734C424.594 107.631 423.965 109.484 423.638 111.358C423.614 111.498 423.505 111.627 423.435 111.761C423.399 111.632 423.355 111.505 423.328 111.374C422.902 109.35 422.569 107.305 422.027 105.306C421.576 103.644 421.075 101.95 420.242 100.425C419.279 98.6623 415.245 97.8306 413.26 98.7551C412.129 99.2825 411.585 100.547 412.319 101.465C413.013 102.334 413.866 103.222 414.879 103.739C416.542 104.587 417.083 106.003 417.218 107.391C417.472 110 414.411 113.669 411.437 114.329C408.094 115.071 404.671 115.533 401.272 116.061C400.316 116.209 399.496 116.235 399.791 117.456C400.536 120.54 400.78 123.647 400.155 126.783C400.117 126.974 400.504 127.273 400.751 127.461C401.645 128.145 402.672 128.716 403.449 129.49C404.844 130.881 406.079 132.4 407.425 133.832C407.569 133.984 408.143 134.047 408.281 133.93C409.806 132.626 411.247 131.241 412.787 129.951C414.794 128.27 416.852 126.634 418.934 125.028C419.328 124.724 419.94 124.646 420.451 124.464C420.198 124.984 419.969 125.515 419.677 126.016C419.608 126.135 419.298 126.122 419.158 126.231C418.712 126.579 418.284 126.809 419.25 127.221C420.585 127.79 421.782 128.622 423.037 129.344C428.733 132.623 434.869 134.162 441.662 133.165C445.503 132.602 448.141 130.774 449.312 127.392C450.434 124.152 449.967 123.209 446.506 121.907C444.567 121.178 442.545 120.552 442.036 118.421C441.836 117.585 443.062 116.981 443.815 117.396C443.875 117.429 443.913 117.463 443.922 117.497C444.291 119.006 445.571 119.528 446.922 120.072C449.405 121.071 449.709 120.931 449.709 118.651C449.709 115.666 449.708 115.666 452.635 114.736C454.331 114.197 454.604 113.671 453.834 112.198C452.67 109.973 451.91 107.705 452.232 105.19C452.629 102.09 452.96 98.98 453.178 95.8665C453.319 93.8656 453.451 91.8178 453.131 89.8508C452.838 88.0495 451.936 86.3269 451.297 84.5715ZM455.394 60.0198C455.151 60.0668 454.842 60.4466 454.817 60.6995C454.563 63.2333 450.411 67.1644 440.55 66.554C430.689 65.9435 434.923 66.2765 432.108 66.2649C429.982 66.2561 422.622 66.8689 421.132 67.2454C418.015 68.0337 409.366 68.6707 403.142 74.5022C401.288 76.518 399.264 78.4297 397.624 80.5764C395.609 83.2132 394.392 86.2202 393.778 89.3811C393.154 92.5929 393.066 95.8408 394.119 98.9758C395.46 102.97 397.181 106.863 398.461 110.87C398.885 112.198 399.845 112.819 400.906 113.154C405.912 114.731 411.351 112.813 414.46 108.696C415.303 107.578 414.817 107.119 413.96 106.337C412.799 105.28 411.782 104.055 410.918 102.785C409.628 100.89 410.174 98.956 411.652 97.4251C413.131 95.8931 415.351 95.5527 417.418 96.1946C419.778 96.9281 421.477 98.5434 422.688 100.521C422.771 100.656 422.82 100.809 422.884 100.953C422.926 100.874 422.977 100.797 423.007 100.714C424.123 97.6649 424.994 94.4998 427.171 91.8811C428.595 90.1665 430.131 88.4567 431.94 87.0881C433.491 85.9154 435.459 85.1513 437.318 84.3479C440.226 83.0916 443.109 81.7006 446.17 80.843C448.898 80.0783 442.749 81.8613 454.155 78.1819C465.56 74.5024 459.692 62.9114 456.315 60.3616C456.064 60.1718 455.665 59.9678 455.394 60.0198ZM447.201 101.809C448.556 101.809 447.902 106.525 446.551 106.069C445.168 105.6 445.829 101.809 447.201 101.809ZM441.78 94.8792C442.435 94.8193 448.824 95.9159 451.383 95.9895C452.863 96.0321 451.46 97.4501 451.214 97.4602C447.948 97.5844 440.866 95.6537 441.78 94.8792Z" fill="#00160A"/>
<path fill-rule="evenodd" clip-rule="evenodd" d="M406.338 144.723C403.574 143.997 402.918 140.248 400.13 139.6C397.372 138.96 394.722 141.881 391.972 141.214C390.102 140.76 389.228 138.913 388.193 137.449C387.186 136.024 385.063 134.738 383.548 135.657L383.424 135.739C381.322 137.222 378.169 136.285 376.052 134.819C373.935 133.353 372.14 131.377 369.598 130.623C370.932 129.445 373.244 130.3 374.537 131.515C375.829 132.731 376.88 134.332 378.675 134.818C381.425 135.563 384.523 133.279 387.119 134.381C388.733 135.066 389.39 136.76 390.356 138.104C391.322 139.448 393.426 140.574 394.798 139.551C398.128 137.067 404.079 138.642 405.362 142.346C405.734 143.42 407.379 144.996 406.338 144.723Z" fill="#E7EAEE"/>
<path fill-rule="evenodd" clip-rule="evenodd" d="M241.47 426.236C249.149 430.282 273.203 442.202 290.836 442.597L436.683 443.008C436.683 443.008 513.372 418.884 457.302 427.986C454.129 428.501 445.04 433.363 430.427 434.423C403.715 436.36 290.836 435.122 290.836 435.122C290.836 435.122 239.45 425.171 241.47 426.236Z" fill="#E7EAEE"/>
<path fill-rule="evenodd" clip-rule="evenodd" d="M116.216 345.977C116.396 345.798 116.614 345.671 116.749 345.721C118.285 346.29 119.171 345.796 119.637 344.439C119.715 344.214 120.109 344.075 120.357 343.896C120.585 344.168 121.005 344.44 121.006 344.712C121.009 345.617 121.448 346.042 122.409 346.311C122.819 346.426 123.061 347.013 123.38 347.385C123.059 347.451 122.575 347.427 122.452 347.603C122.201 347.96 122.069 348.419 122.032 348.847C121.999 349.21 122.203 349.585 122.238 349.959C122.285 350.451 122.197 350.811 121.549 350.316C120.256 349.327 119.134 349.698 118.03 350.631C117.762 350.857 117.291 350.893 116.913 351.016C116.983 350.709 117.003 350.385 117.129 350.097C117.788 348.588 117.332 347.292 116.216 345.977Z" fill="#A0B5B9"/>
<ellipse cx="433.024" cy="115.344" rx="5.572" ry="4.984" fill="#A0B5B9"/>
<path fill-rule="evenodd" clip-rule="evenodd" d="M353.298 159.707L353.939 160.591L354.151 160.877C355.494 162.639 357.534 164.371 359.803 163.857C365.84 162.491 372.709 164.876 376.133 169.528C377.825 171.828 381.585 171.377 384.658 170.788L385.064 170.708C388.146 170.097 392.409 170.385 393.187 173.057L393.228 173.21C393.587 174.748 395.752 175.216 397.534 175.176L398.086 175.158C402.567 175.158 403.153 177.362 403.154 177.135C403.154 177.135 393.303 176.468 391.23 173.479L391.103 173.288C389.783 171.22 386.448 171.556 383.84 172.26L383.122 172.46L382.762 172.554C380.216 173.192 377.125 173.423 375.847 171.458C372.915 166.948 366.805 164.268 361.021 164.954C359.532 165.131 357.989 165.505 356.563 165.083C353.153 164.073 352.708 159.363 349.352 158.215C345.119 156.766 341.02 162.27 336.638 161.231C339.303 159.413 342.257 157.934 345.385 156.854C346.433 156.491 347.545 156.169 348.66 156.29C350.726 156.514 352.113 158.102 353.298 159.707ZM407.09 165.141C406.667 166.305 406.356 167.339 406.149 168.216C405.72 165.688 402.911 163.35 400.262 164.168L400.109 164.219C398.428 164.818 396.648 163.575 395.561 162.281L395.301 161.966L394.908 161.485C394.03 160.411 393.084 159.352 391.677 159.047C389.105 158.488 386.834 160.779 384.204 161.052C378.119 161.685 375.077 151.94 369.102 153.149C367.795 153.413 366.665 154.214 365.338 154.376C361.674 154.824 359.709 150.657 356.621 148.837C354.297 147.468 351.018 147.551 348.785 149.035C348.898 146.656 352.516 145.607 354.986 146.502C357.456 147.398 359.151 149.411 361.202 150.932C363.202 152.415 366.169 153.434 368.346 152.227L368.512 152.13C371.131 150.508 374.635 152.565 376.681 154.75L377.424 155.545C379.291 157.533 381.425 159.599 384.225 159.408C386.795 159.233 388.983 157.091 391.533 157.433C395.248 157.933 396.766 163.288 400.501 162.926C402.902 162.693 405.399 163.414 407.194 164.858L407.09 165.141ZM409.019 153.935C408.419 154.687 407.818 155.29 407.215 155.746L407.014 155.893L406.512 155.571C404.069 154.019 401.401 152.509 398.431 152.571C397.346 152.594 396.235 152.828 395.194 152.555C392.43 151.829 391.774 148.08 388.986 147.432C386.228 146.792 383.578 149.713 380.828 149.046C378.958 148.592 378.084 146.745 377.049 145.281C376.042 143.856 373.919 142.57 372.404 143.489L372.28 143.571C370.178 145.054 367.025 144.117 364.908 142.651C362.791 141.185 360.996 139.209 358.454 138.455C359.788 137.277 362.1 138.132 363.393 139.347C364.685 140.563 365.736 142.164 367.531 142.65C370.281 143.395 373.379 141.111 375.975 142.213C377.589 142.898 378.246 144.592 379.212 145.936C380.178 147.28 382.282 148.406 383.654 147.383C386.984 144.899 392.935 146.474 394.218 150.178C394.59 151.252 396.19 151.502 397.425 151.286C398.66 151.07 399.929 150.589 401.129 150.927C402.655 151.357 403.437 152.944 404.907 153.509C406.437 154.096 408.266 153.349 409.289 152.168L409.392 152.044C410.215 151.012 409.83 152.92 409.019 153.935Z" fill="#A0B5B9"/>
<path d="M440.526 274.324C441.581 274.008 442.202 274.071 442.905 274.432L443.086 274.531C443.695 274.865 445.411 274.541 445.5 274.736C445.585 274.933 443.403 275.671 442.603 275.252L442.426 275.156C441.898 274.87 441.554 274.823 440.753 275.063C439.814 275.345 439.355 275.689 438.641 276.522L438.443 276.757C437.723 277.61 437.216 278.03 436.305 278.36C435.179 278.768 434.35 278.877 433.516 278.8L433.341 278.782L432.831 278.714C432.474 278.668 432.252 278.669 431.992 278.731L431.833 278.77C430.742 279.041 428.488 281.623 428.259 281.542C428.073 281.47 430.231 278.396 431.551 278.043L431.829 277.974C432.203 277.885 432.522 277.875 432.929 277.918L433.133 277.942L433.394 277.978C433.521 277.996 433.619 278.007 433.717 278.016C434.389 278.078 435.048 277.991 436.016 277.641C436.665 277.406 437.039 277.112 437.596 276.466L437.795 276.232C438.685 275.174 439.29 274.694 440.526 274.324ZM430.177 268.628C431.233 268.311 431.853 268.376 432.556 268.737L432.739 268.835C433.348 269.169 435.066 268.844 435.152 269.041C435.236 269.238 433.054 269.975 432.254 269.555L432.079 269.46C431.55 269.173 431.206 269.128 430.405 269.368C429.466 269.65 429.007 269.993 428.293 270.826L428.094 271.061C427.375 271.914 426.868 272.335 425.958 272.665C424.831 273.072 424.003 273.181 423.168 273.104L422.994 273.086L422.483 273.017C422.126 272.972 421.904 272.974 421.644 273.036L421.485 273.074C420.394 273.345 418.14 275.927 417.912 275.845C417.723 275.776 419.882 272.702 421.203 272.347L421.481 272.278C421.856 272.189 422.174 272.178 422.582 272.221L422.785 272.246L423.046 272.282C423.173 272.299 423.271 272.311 423.369 272.32C424.04 272.382 424.7 272.295 425.668 271.945C426.317 271.71 426.692 271.416 427.249 270.771L427.448 270.536C428.337 269.478 428.942 268.998 430.177 268.628ZM421.331 262.875C422.386 262.558 423.006 262.623 423.709 262.984L423.891 263.082C424.5 263.416 426.22 263.091 426.305 263.288C426.39 263.484 424.208 264.222 423.408 263.802L423.231 263.707C422.703 263.42 422.359 263.375 421.558 263.615C420.619 263.897 420.16 264.239 419.446 265.073L419.248 265.308C418.528 266.162 418.021 266.582 417.11 266.912C415.984 267.319 415.155 267.429 414.321 267.352L414.146 267.334L413.635 267.265C413.279 267.22 413.057 267.221 412.797 267.283L412.637 267.321C411.547 267.592 409.296 270.172 409.065 270.093C408.875 270.025 411.035 266.948 412.356 266.594L412.634 266.526C413.009 266.437 413.327 266.425 413.734 266.468L413.938 266.494L414.2 266.53C414.326 266.547 414.424 266.559 414.522 266.568C415.194 266.63 415.853 266.542 416.821 266.192C417.47 265.957 417.844 265.663 418.401 265.018L418.6 264.783C419.49 263.725 420.095 263.245 421.331 262.875ZM412.851 256.834C414.207 256.652 414.945 256.848 415.711 257.421L415.909 257.574C416.568 258.096 418.731 258.031 418.788 258.286C418.844 258.541 416.02 259.018 415.15 258.356L414.959 258.206C414.386 257.757 413.98 257.636 412.951 257.774C411.744 257.936 411.105 258.265 410.04 259.139L409.743 259.386C408.666 260.284 407.95 260.698 406.766 260.924C405.302 261.202 404.271 261.176 403.277 260.924L403.069 260.867L402.466 260.686C402.044 260.563 401.775 260.522 401.445 260.548L401.242 260.564C399.854 260.684 396.501 263.386 396.244 263.243C396.034 263.12 399.387 259.805 401.074 259.629L401.427 259.598C401.903 259.562 402.292 259.61 402.776 259.74L403.017 259.808L403.326 259.903C403.475 259.948 403.591 259.981 403.708 260.01C404.508 260.214 405.329 260.234 406.586 259.995C407.43 259.834 407.955 259.549 408.785 258.873L409.083 258.626C410.415 257.512 411.264 257.047 412.851 256.834ZM404.095 250.425C405.451 250.243 406.189 250.44 406.956 251.012L407.153 251.166C407.812 251.688 409.974 251.623 410.032 251.878C410.089 252.132 407.263 252.61 406.393 251.948L406.203 251.799C405.63 251.35 405.224 251.228 404.195 251.366C402.988 251.528 402.349 251.857 401.284 252.731L400.986 252.979C399.909 253.877 399.194 254.29 398.01 254.515C396.547 254.794 395.515 254.768 394.521 254.515L394.313 254.46L393.71 254.279C393.288 254.155 393.019 254.114 392.688 254.139L392.486 254.156C391.098 254.276 387.745 256.978 387.488 256.836C387.274 256.717 390.63 253.397 392.318 253.22L392.671 253.19C393.147 253.153 393.536 253.201 394.02 253.332L394.261 253.401L394.57 253.495C394.719 253.54 394.835 253.573 394.952 253.602C395.752 253.806 396.573 253.826 397.831 253.587C398.674 253.426 399.199 253.141 400.029 252.465L400.327 252.218C401.659 251.105 402.508 250.639 404.095 250.425ZM397.719 242.913C399.425 242.974 400.287 243.394 401.1 244.311L401.308 244.555C402.001 245.383 404.67 245.775 404.683 246.121C404.696 246.467 401.12 246.468 400.2 245.41L399.999 245.173C399.396 244.46 398.925 244.211 397.63 244.165C396.112 244.11 395.254 244.4 393.75 245.308L393.329 245.566C391.805 246.502 390.834 246.885 389.33 246.919C387.47 246.961 386.209 246.699 385.045 246.149L384.802 246.03L384.102 245.661C383.612 245.406 383.291 245.294 382.879 245.255L382.626 245.23C380.895 245.081 376.172 247.875 375.888 247.632C375.659 247.425 380.52 243.829 382.63 243.97L383.071 244.008C383.664 244.065 384.131 244.214 384.696 244.491L384.976 244.634L385.334 244.825C385.507 244.917 385.642 244.986 385.779 245.05C386.716 245.493 387.719 245.702 389.318 245.666C390.39 245.642 391.098 245.384 392.269 244.682L392.689 244.425C394.575 243.263 395.722 242.841 397.719 242.913ZM370.941 234.011C370.75 233.774 376.238 230.986 378.291 231.453L378.717 231.559C379.29 231.707 379.722 231.925 380.224 232.286L380.472 232.471L380.788 232.715C380.941 232.832 381.06 232.921 381.182 233.006C382.019 233.587 382.966 233.948 384.547 234.161C385.608 234.304 386.356 234.16 387.645 233.651L388.109 233.464C390.192 232.612 391.403 232.374 393.356 232.755C395.024 233.08 395.791 233.627 396.414 234.657L396.571 234.93C397.092 235.853 399.645 236.653 399.591 236.996C399.537 237.338 396.015 236.785 395.314 235.6L395.163 235.334C394.708 234.538 394.291 234.221 393.025 233.974C391.54 233.685 390.64 233.836 388.982 234.497L388.517 234.686C386.835 235.371 385.804 235.596 384.316 235.396C382.476 235.149 381.286 234.695 380.247 233.973C380.175 233.923 380.104 233.873 380.031 233.819L379.413 233.346C378.979 233.019 378.684 232.858 378.287 232.756L378.043 232.693C376.366 232.277 371.173 234.295 370.941 234.011ZM370.145 220.484C369.962 220.248 375.148 217.457 377.086 217.924L377.49 218.031C378.03 218.179 378.437 218.398 378.912 218.758L379.146 218.943L379.444 219.187C379.588 219.305 379.702 219.393 379.817 219.478C380.607 220.059 381.502 220.42 382.996 220.633C383.997 220.775 384.703 220.633 385.92 220.124L386.359 219.935C388.326 219.083 389.47 218.846 391.314 219.226C392.89 219.551 393.614 220.099 394.203 221.129L394.351 221.402C394.843 222.325 397.253 223.125 397.204 223.467C397.152 223.81 393.825 223.257 393.164 222.072L393.02 221.806C392.59 221.011 392.197 220.693 391.001 220.446C389.599 220.157 388.749 220.308 387.183 220.969L386.745 221.158C385.155 221.843 384.183 222.069 382.777 221.869C381.039 221.621 379.915 221.168 378.933 220.446C378.865 220.396 378.798 220.345 378.729 220.291L378.146 219.818C377.737 219.491 377.458 219.331 377.083 219.228L376.851 219.166C375.269 218.75 370.37 220.765 370.145 220.484ZM370.145 206.956C369.962 206.72 375.148 203.93 377.086 204.397L377.49 204.503C378.03 204.651 378.437 204.87 378.912 205.23L379.146 205.416L379.444 205.659C379.588 205.777 379.702 205.865 379.817 205.95C380.607 206.531 381.502 206.892 382.996 207.105C383.997 207.248 384.703 207.104 385.92 206.595L386.359 206.408C388.326 205.556 389.47 205.318 391.314 205.699C392.89 206.024 393.614 206.571 394.203 207.601L394.351 207.874C394.843 208.797 397.255 209.598 397.204 209.94C397.151 210.282 393.825 209.728 393.164 208.544L393.02 208.278C392.59 207.483 392.197 207.165 391.001 206.919C389.599 206.629 388.749 206.78 387.183 207.441L386.745 207.63C385.155 208.315 384.183 208.541 382.777 208.341C381.039 208.093 379.915 207.64 378.933 206.918C378.865 206.868 378.798 206.817 378.729 206.763L378.146 206.291C377.737 205.964 377.458 205.803 377.083 205.7L376.851 205.637C375.268 205.222 370.367 207.238 370.145 206.956ZM369.349 195.563C369.159 195.326 374.647 192.537 376.699 193.005L377.126 193.111C377.698 193.259 378.129 193.478 378.631 193.839L378.88 194.023L379.196 194.266C379.349 194.384 379.468 194.472 379.59 194.557C380.427 195.139 381.374 195.5 382.956 195.713C384.016 195.855 384.763 195.713 386.052 195.204L386.517 195.015C388.6 194.163 389.811 193.926 391.764 194.306C393.432 194.631 394.199 195.179 394.822 196.209L394.979 196.482C395.5 197.405 398.052 198.205 398 198.548C397.945 198.89 394.423 198.337 393.722 197.152L393.57 196.886C393.115 196.091 392.699 195.773 391.433 195.526C389.948 195.237 389.047 195.388 387.389 196.049L386.925 196.238C385.243 196.923 384.212 197.149 382.724 196.949C380.884 196.701 379.693 196.248 378.654 195.526C378.582 195.476 378.511 195.425 378.438 195.371L377.821 194.898C377.387 194.571 377.092 194.41 376.695 194.307L376.451 194.245C374.775 193.829 369.582 195.847 369.349 195.563ZM369.044 185.094C368.843 184.823 374.758 181.652 376.97 182.183L377.431 182.303C378.049 182.472 378.514 182.721 379.055 183.132L379.323 183.342L379.663 183.619C379.828 183.753 379.957 183.853 380.088 183.95C380.991 184.611 382.012 185.022 383.717 185.264C384.861 185.427 385.667 185.264 387.057 184.685L387.558 184.471C389.804 183.502 391.11 183.232 393.215 183.665C395.014 184.035 395.842 184.657 396.513 185.829L396.683 186.14C397.245 187.191 399.999 188.101 399.94 188.491C399.881 188.88 396.083 188.25 395.328 186.902L395.164 186.599C394.673 185.694 394.224 185.333 392.859 185.052C391.258 184.723 390.287 184.895 388.499 185.647L387.999 185.862C386.184 186.642 385.073 186.898 383.468 186.671C381.484 186.389 380.199 185.873 379.079 185.051C379.001 184.994 378.925 184.937 378.846 184.876L378.18 184.338C377.713 183.965 377.395 183.783 376.966 183.666L376.703 183.594C374.895 183.121 369.295 185.417 369.044 185.094Z" fill="#A0B5B9"/>
</svg>
